{
  "accessors": [
    {
      "bufferView": 2,
      "componentType": 5126,
      "count": 140,
      "max": [
        10.101601600646973,
        3.617263078689575,
        -0.17949771881103516
      ],
      "min": [
        -0.7672557830810547,
        -3.967575788497925,
        -8.857728958129883
      ],
      "type": "VEC3"
    },
    {
      "bufferView": 2,
      "byteOffset": 1680,
      "componentType": 5126,
      "count": 140,
      "max": [
        0.9524205327033997,
        0.987915575504303,
        0.9936471581459045
      ],
      "min": [
        -0.6056626439094543,
        -0.990185558795929,
        -0.9996265769004822
      ],
      "type": "VEC3"
    },
    {
      "bufferView": 3,
      "componentType": 5126,
      "count": 140,
      "max": [
        0.9936496615409851,
        0.8436822295188904,
        0.35174912214279175,
        1.0
      ],
      "min": [
        -0.9992090463638306,
        -0.8355797529220581,
        -0.9523186683654785,
        1.0
      ],
      "type": "VEC4"
    },
    {
      "bufferView": 1,
      "componentType": 5126,
      "count": 140,
      "max": [
        0.5664563775062561,
        0.7613245248794556
      ],
      "min": [
        0.025467028841376305,
        0.022822201251983643
      ],
      "type": "VEC2"
    },
    {
      "bufferView": 1,
      "byteOffset": 1120,
      "componentType": 5126,
      "count": 140,
      "max": [
        0.5664563775062561,
        0.7613245248794556
      ],
      "min": [
        0.025467028841376305,
        0.022822201251983643
      ],
      "type": "VEC2"
    },
    {
      "bufferView": 1,
      "byteOffset": 2240,
      "componentType": 5126,
      "count": 140,
      "max": [
        0.5664563775062561,
        0.7613245248794556
      ],
      "min": [
        0.025467028841376305,
        0.022822201251983643
      ],
      "type": "VEC2"
    },
    {
      "bufferView": 0,
      "componentType": 5125,
      "count": 660,
      "type": "SCALAR"
    },
    {
      "bufferView": 2,
      "byteOffset": 3360,
      "componentType": 5126,
      "count": 559,
      "max": [
        -0.4733928442001343,
        6.916801452636719,
        13.352388381958008
      ],
      "min": [
        -4.829128265380859,
        -6.916831016540527,
        0.12334537506103516
      ],
      "type": "VEC3"
    },
    {
      "bufferView": 2,
      "byteOffset": 10068,
      "componentType": 5126,
      "count": 559,
      "max": [
        0.9999567270278931,
        0.9988885521888733,
        0.9980753064155579
      ],
      "min": [
        -0.4013161361217499,
        -0.9988885521888733,
        -0.7939654588699341
      ],
      "type": "VEC3"
    },
    {
      "bufferView": 3,
      "byteOffset": 2240,
      "componentType": 5126,
      "count": 559,
      "max": [
        0.9980753660202026,
        0.9992299675941467,
        0.9999566674232483,
        1.0
      ],
      "min": [
        -0.9503005146980286,
        -0.9992299675941467,
        -0.9230250120162964,
        -1.0
      ],
      "type": "VEC4"
    },
    {
      "bufferView": 1,
      "byteOffset": 3360,
      "componentType": 5126,
      "count": 559,
      "max": [
        0.9834101796150208,
        0.9904001951217651
      ],
      "min": [
        0.008313536643981934,
        0.01751708984375
      ],
      "type": "VEC2"
    },
    {
      "bufferView": 1,
      "byteOffset": 7832,
      "componentType": 5126,
      "count": 559,
      "max": [
        0.9834101796150208,
        0.9904001951217651
      ],
      "min": [
        0.008313536643981934,
        0.01751708984375
      ],
      "type": "VEC2"
    },
    {
      "bufferView": 1,
      "byteOffset": 12304,
      "componentType": 5126,
      "count": 559,
      "max": [
        0.9834101796150208,
        0.9904001951217651
      ],
      "min": [
        0.008313536643981934,
        0.01751708984375
      ],
      "type": "VEC2"
    },
    {
      "bufferView": 0,
      "byteOffset": 2640,
      "componentType": 5125,
      "count": 2844,
      "type": "SCALAR"
    },
    {
      "bufferView": 2,
      "byteOffset": 16776,
      "componentType": 5126,
      "count": 559,
      "max": [
        0.9653537273406982,
        6.916815757751465,
        13.685332298278809
      ],
      "min": [
        -4.058941841125488,
        -6.916816711425781,
        0.41956520080566406
      ],
      "type": "VEC3"
    },
    {
      "bufferView": 2,
      "byteOffset": 23484,
      "componentType": 5126,
      "count": 559,
      "max": [
        0.9999997019767761,
        0.9989346861839294,
        0.9992318153381348
      ],
      "min": [
        -0.3998951315879822,
        -0.9989346861839294,
        -0.807650625705719
      ],
      "type": "VEC3"
    },
    {
      "bufferView": 3,
      "byteOffset": 11184,
      "componentType": 5126,
      "count": 559,
      "max": [
        0.9992318749427795,
        0.998893678188324,
        0.9999997615814209,
        1.0
      ],
      "min": [
        -0.9436154365539551,
        -0.998893678188324,
        -0.9942427277565002,
        -1.0
      ],
      "type": "VEC4"
    },
    {
      "bufferView": 1,
      "byteOffset": 16776,
      "componentType": 5126,
      "count": 559,
      "max": [
        0.9834101796150208,
        0.9904001951217651
      ],
      "min": [
        0.008313536643981934,
        0.01751708984375
      ],
      "type": "VEC2"
    },
    {
      "bufferView": 1,
      "byteOffset": 21248,
      "componentType": 5126,
      "count": 559,
      "max": [
        0.9834101796150208,
        0.9904001951217651
      ],
      "min": [
        0.008313536643981934,
        0.01751708984375
      ],
      "type": "VEC2"
    },
    {
      "bufferView": 1,
      "byteOffset": 25720,
      "componentType": 5126,
      "count": 559,
      "max": [
        0.9834101796150208,
        0.9904001951217651
      ],
      "min": [
        0.008313536643981934,
        0.01751708984375
      ],
      "type": "VEC2"
    },
    {
      "bufferView": 0,
      "byteOffset": 14016,
      "componentType": 5125,
      "count": 2844,
      "type": "SCALAR"
    },
    {
      "bufferView": 2,
      "byteOffset": 30192,
      "componentType": 5126,
      "count": 140,
      "max": [
        9.198701858520508,
        3.8533880710601807,
        -2.2782158851623535
      ],
      "min": [
        -1.9236233234405518,
        -4.032211780548096,
        -9.936746597290039
      ],
      "type": "VEC3"
    },
    {
      "bufferView": 2,
      "byteOffset": 31872,
      "componentType": 5126,
      "count": 140,
      "max": [
        0.9823808073997498,
        0.979888379573822,
        0.9996532797813416
      ],
      "min": [
        -0.6177510023117065,
        -0.9772101044654846,
        -0.9994142651557922
      ],
      "type": "VEC3"
    },
    {
      "bufferView": 3,
      "byteOffset": 20128,
      "componentType": 5126,
      "count": 140,
      "max": [
        0.9998174905776978,
        0.7595689296722412,
        0.26465466618537903,
        1.0
      ],
      "min": [
        -0.999847412109375,
        -0.7788189053535461,
        -0.9823266863822937,
        1.0
      ],
      "type": "VEC4"
    },
    {
      "bufferView": 1,
      "byteOffset": 30192,
      "componentType": 5126,
      "count": 140,
      "max": [
        0.5664563775062561,
        0.7613245248794556
      ],
      "min": [
        0.025467028841376305,
        0.022822201251983643
      ],
      "type": "VEC2"
    },
    {
      "bufferView": 1,
      "byteOffset": 31312,
      "componentType": 5126,
      "count": 140,
      "max": [
        0.5664563775062561,
        0.7613245248794556
      ],
      "min": [
        0.025467028841376305,
        0.022822201251983643
      ],
      "type": "VEC2"
    },
    {
      "bufferView": 1,
      "byteOffset": 32432,
      "componentType": 5126,
      "count": 140,
      "max": [
        0.5664563775062561,
        0.7613245248794556
      ],
      "min": [
        0.025467028841376305,
        0.022822201251983643
      ],
      "type": "VEC2"
    },
    {
      "bufferView": 0,
      "byteOffset": 25392,
      "componentType": 5125,
      "count": 660,
      "type": "SCALAR"
    },
    {
      "bufferView": 2,
      "byteOffset": 33552,
      "componentType": 5126,
      "count": 559,
      "max": [
        -0.13565659523010254,
        6.916801452636719,
        13.369582176208496
      ],
      "min": [
        -5.159952163696289,
        -6.916831016540527,
        0.16149520874023438
      ],
      "type": "VEC3"
    },
    {
      "bufferView": 2,
      "byteOffset": 40260,
      "componentType": 5126,
      "count": 559,
      "max": [
        0.9999997019767761,
        0.9988885521888733,
        0.9992318153381348
      ],
      "min": [
        -0.39989522099494934,
        -0.9988885521888733,
        -0.8076506853103638
      ],
      "type": "VEC3"
    },
    {
      "bufferView": 3,
      "byteOffset": 22368,
      "componentType": 5126,
      "count": 559,
      "max": [
        0.99923175573349,
        0.9992299675941467,
        0.9999997615814209,
        1.0
      ],
      "min": [
        -0.9550641179084778,
        -0.9992299675941467,
        -0.994242787361145,
        -1.0
      ],
      "type": "VEC4"
    },
    {
      "bufferView": 1,
      "byteOffset": 33552,
      "componentType": 5126,
      "count": 559,
      "max": [
        0.9834101796150208,
        0.9904001951217651
      ],
      "min": [
        0.008313536643981934,
        0.01751708984375
      ],
      "type": "VEC2"
    },
    {
      "bufferView": 1,
      "byteOffset": 38024,
      "componentType": 5126,
      "count": 559,
      "max": [
        0.9834101796150208,
        0.9904001951217651
      ],
      "min": [
        0.008313536643981934,
        0.01751708984375
      ],
      "type": "VEC2"
    },
    {
      "bufferView": 1,
      "byteOffset": 42496,
      "componentType": 5126,
      "count": 559,
      "max": [
        0.9834101796150208,
        0.9904001951217651
      ],
      "min": [
        0.008313536643981934,
        0.01751708984375
      ],
      "type": "VEC2"
    },
    {
      "bufferView": 0,
      "byteOffset": 28032,
      "componentType": 5125,
      "count": 2844,
      "type": "SCALAR"
    },
    {
      "bufferView": 2,
      "byteOffset": 46968,
      "componentType": 5126,
      "count": 559,
      "max": [
        0.9653537273406982,
        6.916815757751465,
        13.685332298278809
      ],
      "min": [
        -4.058941841125488,
        -6.916816711425781,
        0.41956520080566406
      ],
      "type": "VEC3"
    },
    {
      "bufferView": 2,
      "byteOffset": 53676,
      "componentType": 5126,
      "count": 559,
      "max": [
        0.9999997019767761,
        0.9989346861839294,
        0.9992318153381348
      ],
      "min": [
        -0.3998951315879822,
        -0.9989346861839294,
        -0.807650625705719
      ],
      "type": "VEC3"
    },
    {
      "bufferView": 3,
      "byteOffset": 31312,
      "componentType": 5126,
      "count": 559,
      "max": [
        0.9992318749427795,
        0.998893678188324,
        0.9999997615814209,
        1.0
      ],
      "min": [
        -0.9436154365539551,
        -0.998893678188324,
        -0.9942427277565002,
        -1.0
      ],
      "type": "VEC4"
    },
    {
      "bufferView": 1,
      "byteOffset": 46968,
      "componentType": 5126,
      "count": 559,
      "max": [
        0.9834101796150208,
        0.9904001951217651
      ],
      "min": [
        0.008313536643981934,
        0.01751708984375
      ],
      "type": "VEC2"
    },
    {
      "bufferView": 1,
      "byteOffset": 51440,
      "componentType": 5126,
      "count": 559,
      "max": [
        0.9834101796150208,
        0.9904001951217651
      ],
      "min": [
        0.008313536643981934,
        0.01751708984375
      ],
      "type": "VEC2"
    },
    {
      "bufferView": 1,
      "byteOffset": 55912,
      "componentType": 5126,
      "count": 559,
      "max": [
        0.9834101796150208,
        0.9904001951217651
      ],
      "min": [
        0.008313536643981934,
        0.01751708984375
      ],
      "type": "VEC2"
    },
    {
      "bufferView": 0,
      "byteOffset": 39408,
      "componentType": 5125,
      "count": 2844,
      "type": "SCALAR"
    },
    {
      "bufferView": 2,
      "byteOffset": 60384,
      "componentType": 5126,
      "count": 559,
      "max": [
        0.9653537273406982,
        6.916815757751465,
        13.685332298278809
      ],
      "min": [
        -4.058941841125488,
        -6.916816711425781,
        0.41956520080566406
      ],
      "type": "VEC3"
    },
    {
      "bufferView": 2,
      "byteOffset": 67092,
      "componentType": 5126,
      "count": 559,
      "max": [
        0.9999997019767761,
        0.9989346861839294,
        0.9992318153381348
      ],
      "min": [
        -0.3998951315879822,
        -0.9989346861839294,
        -0.807650625705719
      ],
      "type": "VEC3"
    },
    {
      "bufferView": 3,
      "byteOffset": 40256,
      "componentType": 5126,
      "count": 559,
      "max": [
        0.9992318749427795,
        0.998893678188324,
        0.9999997615814209,
        1.0
      ],
      "min": [
        -0.9436154365539551,
        -0.998893678188324,
        -0.9942427277565002,
        -1.0
      ],
      "type": "VEC4"
    },
    {
      "bufferView": 1,
      "byteOffset": 60384,
      "componentType": 5126,
      "count": 559,
      "max": [
        0.9834101796150208,
        0.9904001951217651
      ],
      "min": [
        0.008313536643981934,
        0.01751708984375
      ],
      "type": "VEC2"
    },
    {
      "bufferView": 1,
      "byteOffset": 64856,
      "componentType": 5126,
      "count": 559,
      "max": [
        0.9834101796150208,
        0.9904001951217651
      ],
      "min": [
        0.008313536643981934,
        0.01751708984375
      ],
      "type": "VEC2"
    },
    {
      "bufferView": 1,
      "byteOffset": 69328,
      "componentType": 5126,
      "count": 559,
      "max": [
        0.9834101796150208,
        0.9904001951217651
      ],
      "min": [
        0.008313536643981934,
        0.01751708984375
      ],
      "type": "VEC2"
    },
    {
      "bufferView": 0,
      "byteOffset": 50784,
      "componentType": 5125,
      "count": 2844,
      "type": "SCALAR"
    },
    {
      "bufferView": 2,
      "byteOffset": 73800,
      "componentType": 5126,
      "count": 559,
      "max": [
        -0.13565659523010254,
        6.916801452636719,
        13.369582176208496
      ],
      "min": [
        -5.159952163696289,
        -6.916831016540527,
        0.16149520874023438
      ],
      "type": "VEC3"
    },
    {
      "bufferView": 2,
      "byteOffset": 80508,
      "componentType": 5126,
      "count": 559,
      "max": [
        0.9999997019767761,
        0.9988885521888733,
        0.9992318153381348
      ],
      "min": [
        -0.39989522099494934,
        -0.9988885521888733,
        -0.8076506853103638
      ],
      "type": "VEC3"
    },
    {
      "bufferView": 3,
      "byteOffset": 49200,
      "componentType": 5126,
      "count": 559,
      "max": [
        0.99923175573349,
        0.9992299675941467,
        0.9999997615814209,
        1.0
      ],
      "min": [
        -0.9550641179084778,
        -0.9992299675941467,
        -0.994242787361145,
        -1.0
      ],
      "type": "VEC4"
    },
    {
      "bufferView": 1,
      "byteOffset": 73800,
      "componentType": 5126,
      "count": 559,
      "max": [
        0.9834101796150208,
        0.9904001951217651
      ],
      "min": [
        0.008313536643981934,
        0.01751708984375
      ],
      "type": "VEC2"
    },
    {
      "bufferView": 1,
      "byteOffset": 78272,
      "componentType": 5126,
      "count": 559,
      "max": [
        0.9834101796150208,
        0.9904001951217651
      ],
      "min": [
        0.008313536643981934,
        0.01751708984375
      ],
      "type": "VEC2"
    },
    {
      "bufferView": 1,
      "byteOffset": 82744,
      "componentType": 5126,
      "count": 559,
      "max": [
        0.9834101796150208,
        0.9904001951217651
      ],
      "min": [
        0.008313536643981934,
        0.01751708984375
      ],
      "type": "VEC2"
    },
    {
      "bufferView": 0,
      "byteOffset": 62160,
      "componentType": 5125,
      "count": 2844,
      "type": "SCALAR"
    },
    {
      "bufferView": 2,
      "byteOffset": 87216,
      "componentType": 5126,
      "count": 140,
      "max": [
        15.092053413391113,
        3.852536678314209,
        -2.6745312213897705
      ],
      "min": [
        -2.8765249252319336,
        -4.043941974639893,
        -11.405681610107422
      ],
      "type": "VEC3"
    },
    {
      "bufferView": 2,
      "byteOffset": 88896,
      "componentType": 5126,
      "count": 140,
      "max": [
        0.9697547554969788,
        0.9787425994873047,
        0.9985268115997314
      ],
      "min": [
        -0.5953513979911804,
        -0.9678922295570374,
        -0.9995487332344055
      ],
      "type": "VEC3"
    },
    {
      "bufferView": 3,
      "byteOffset": 58144,
      "componentType": 5126,
      "count": 140,
      "max": [
        0.9986677765846252,
        0.6573894023895264,
        0.4906507730484009,
        1.0
      ],
      "min": [
        -0.9993270039558411,
        -0.6834575533866882,
        -0.969707727432251,
        1.0
      ],
      "type": "VEC4"
    },
    {
      "bufferView": 1,
      "byteOffset": 87216,
      "componentType": 5126,
      "count": 140,
      "max": [
        0.5664563775062561,
        0.7613245248794556
      ],
      "min": [
        0.025467028841376305,
        0.022822201251983643
      ],
      "type": "VEC2"
    },
    {
      "bufferView": 1,
      "byteOffset": 88336,
      "componentType": 5126,
      "count": 140,
      "max": [
        0.5664563775062561,
        0.7613245248794556
      ],
      "min": [
        0.025467028841376305,
        0.022822201251983643
      ],
      "type": "VEC2"
    },
    {
      "bufferView": 1,
      "byteOffset": 89456,
      "componentType": 5126,
      "count": 140,
      "max": [
        0.5664563775062561,
        0.7613245248794556
      ],
      "min": [
        0.025467028841376305,
        0.022822201251983643
      ],
      "type": "VEC2"
    },
    {
      "bufferView": 0,
      "byteOffset": 73536,
      "componentType": 5125,
      "count": 660,
      "type": "SCALAR"
    }
  ],
  "asset": {
    "extras": {
      "author": "Rostokino Interactive (https://sketchfab.com/antonksavie)",
      "license": "CC-BY-NC-ND-4.0 (http://creativecommons.org/licenses/by-nc-nd/4.0/)",
      "source": "https://sketchfab.com/3d-models/gameready-human-mouth-and-tongue-6c25fc725d1c404c82ec7499e4f7e041",
      "title": "Gameready human mouth and tongue"
    },
    "generator": "Sketchfab-15.0.0",
    "version": "2.0"
  },
  "bufferViews": [
    {
      "buffer": 0,
      "byteLength": 76176,
      "name": "floatBufferViews",
      "target": 34963
    },
    {
      "buffer": 0,
      "byteLength": 90576,
      "byteOffset": 76176,
      "byteStride": 8,
      "name": "floatBufferViews",
      "target": 34962
    },
    {
      "buffer": 0,
      "byteLength": 90576,
      "byteOffset": 166752,
      "byteStride": 12,
      "name": "floatBufferViews",
      "target": 34962
    },
    {
      "buffer": 0,
      "byteLength": 60384,
      "byteOffset": 257328,
      "byteStride": 16,
      "name": "floatBufferViews",
      "target": 34962
    }
  ],
  "buffers": [
    {
      "byteLength": 317712,
      "uri": "scene.bin"
    }
  ],
  "extensionsUsed": [
    "KHR_materials_emissive_strength"
  ],
  "images": [
    {
      "uri": "textures/Material.001_baseColor.png"
    },
    {
      "uri": "textures/Material.001_metallicRoughness.png"
    },
    {
      "uri": "textures/Material.001_normal.png"
    }
  ],
  "materials": [
    {
      "emissiveFactor": [
        0.00284941,
        0.00256615,
        0.00165702
      ],
      "name": "Material.001",
      "normalTexture": {
        "index": 2,
        "scale": 0.6
      },
      "occlusionTexture": {
        "index": 1
      },
      "pbrMetallicRoughness": {
        "baseColorTexture": {
          "index": 0
        },
        "metallicRoughnessTexture": {
          "index": 1
        }
      }
    },
    {
      "emissiveFactor": [
        0.00284941,
        0.00256615,
        0.00165702
      ],
      "extensions": {
        "KHR_materials_emissive_strength": {
          "emissiveStrength": 1.3
        }
      },
      "name": "Material.002",
      "normalTexture": {
        "index": 2,
        "scale": 0.6
      },
      "occlusionTexture": {
        "index": 1
      },
      "pbrMetallicRoughness": {
        "baseColorTexture": {
          "index": 0
        },
        "metallicRoughnessTexture": {
          "index": 1
        }
      }
    },
    {
      "emissiveFactor": [
        0.00284941,
        0.00256615,
        0.00165702
      ],
      "extensions": {
        "KHR_materials_emissive_strength": {
          "emissiveStrength": 1.3
        }
      },
      "name": "Material.004",
      "normalTexture": {
        "index": 2,
        "scale": 0.6
      },
      "occlusionTexture": {
        "index": 1
      },
      "pbrMetallicRoughness": {
        "baseColorTexture": {
          "index": 0
        },
        "metallicRoughnessTexture": {
          "index": 1
        }
      }
    }
  ],
  "meshes": [
    {
      "name": "Plane.004_Material.001_0",
      "primitives": [
        {
          "attributes": {
            "NORMAL": 1,
            "POSITION": 0,
            "TANGENT": 2,
            "TEXCOORD_0": 3,
            "TEXCOORD_1": 4,
            "TEXCOORD_2": 5
          },
          "indices": 6,
          "material": 0,
          "mode": 4
        }
      ]
    },
    {
      "name": "Plane.003_Material.001_0",
      "primitives": [
        {
          "attributes": {
            "NORMAL": 8,
            "POSITION": 7,
            "TANGENT": 9,
            "TEXCOORD_0": 10,
            "TEXCOORD_1": 11,
            "TEXCOORD_2": 12
          },
          "indices": 13,
          "material": 0,
          "mode": 4
        }
      ]
    },
    {
      "name": "Plane.002_Material.001_0",
      "primitives": [
        {
          "attributes": {
            "NORMAL": 15,
            "POSITION": 14,
            "TANGENT": 16,
            "TEXCOORD_0": 17,
            "TEXCOORD_1": 18,
            "TEXCOORD_2": 19
          },
          "indices": 20,
          "material": 0,
          "mode": 4
        }
      ]
    },
    {
      "name": "Plane.001_Material.002_0",
      "primitives": [
        {
          "attributes": {
            "NORMAL": 22,
            "POSITION": 21,
            "TANGENT": 23,
            "TEXCOORD_0": 24,
            "TEXCOORD_1": 25,
            "TEXCOORD_2": 26
          },
          "indices": 27,
          "material": 1,
          "mode": 4
        }
      ]
    },
    {
      "name": "Plane.005_Material.002_0",
      "primitives": [
        {
          "attributes": {
            "NORMAL": 29,
            "POSITION": 28,
            "TANGENT": 30,
            "TEXCOORD_0": 31,
            "TEXCOORD_1": 32,
            "TEXCOORD_2": 33
          },
          "indices": 34,
          "material": 1,
          "mode": 4
        }
      ]
    },
    {
      "name": "Plane.006_Material.002_0",
      "primitives": [
        {
          "attributes": {
            "NORMAL": 36,
            "POSITION": 35,
            "TANGENT": 37,
            "TEXCOORD_0": 38,
            "TEXCOORD_1": 39,
            "TEXCOORD_2": 40
          },
          "indices": 41,
          "material": 1,
          "mode": 4
        }
      ]
    },
    {
      "name": "Plane.007_Material.004_0",
      "primitives": [
        {
          "attributes": {
            "NORMAL": 43,
            "POSITION": 42,
            "TANGENT": 44,
            "TEXCOORD_0": 45,
            "TEXCOORD_1": 46,
            "TEXCOORD_2": 47
          },
          "indices": 48,
          "material": 2,
          "mode": 4
        }
      ]
    },
    {
      "name": "Plane.008_Material.004_0",
      "primitives": [
        {
          "attributes": {
            "NORMAL": 50,
            "POSITION": 49,
            "TANGENT": 51,
            "TEXCOORD_0": 52,
            "TEXCOORD_1": 53,
            "TEXCOORD_2": 54
          },
          "indices": 55,
          "material": 2,
          "mode": 4
        }
      ]
    },
    {
      "name": "Plane.009_Material.004_0",
      "primitives": [
        {
          "attributes": {
            "NORMAL": 57,
            "POSITION": 56,
            "TANGENT": 58,
            "TEXCOORD_0": 59,
            "TEXCOORD_1": 60,
            "TEXCOORD_2": 61
          },
          "indices": 62,
          "material": 2,
          "mode": 4
        }
      ]
    }
  ],
  "nodes": [
    {
      "children": [
        1
      ],
      "matrix": [
        0.009217429906129837,
        0.0,
        0.0,
        0.0,
        0.0,
        2.046680581930768e-18,
        -0.009217429906129837,
        0.0,
        0.0,
        0.009217429906129837,
        2.046680581930768e-18,
        0.0,
        0.0,
        0.0,
        0.0,
        1.0
      ],
      "name": "Sketchfab_model"
    },
    {
      "children": [
        2
      ],
      "matrix": [
        0.009999999776482582,
        0.0,
        0.0,
        0.0,
        0.0,
        0.0,
        0.009999999776482582,
        0.0,
        0.0,
        -0.009999999776482582,
        0.0,
        0.0,
        0.0,
        0.0,
        0.0,
        1.0
      ],
      "name": "ef83fb9a932a4f9383645597f3201579.fbx"
    },
    {
      "children": [
        3,
        5,
        7,
        9,
        11,
        13,
        15,
        17,
        19
      ],
      "name": "RootNode"
    },
    {
      "children": [
        4
      ],
      "matrix": [
        82.47705449098673,
        56.523492900863026,
        -1.6222696002386678,
        0.0,
        -0.22207241045913428,
        -2.5451033545440094,
        -99.96736033705803,
        0.0,
        -56.54633226131257,
        82.45373687160182,
        -1.9736031974185593,
        0.0,
        0.0,
        0.0,
        1800.0,
        1.0
      ],
      "name": "Plane.004"
    },
    {
      "mesh": 0,
      "name": "Plane.004_Material.001_0"
    },
    {
      "children": [
        6
      ],
      "matrix": [
        1.4809615998573904,
        99.98901027164692,
        6.6223562686319625e-06,
        0.0,
        -9.108438781546546e-05,
        -5.2740110723092926e-06,
        99.99999999995839,
        0.0,
        99.98901027160565,
        -1.4809615998628083,
        9.0996271806917e-05,
        0.0,
        0.0,
        0.0,
        1800.0,
        1.0
      ],
      "name": "Plane.003"
    },
    {
      "mesh": 1,
      "name": "Plane.003_Material.001_0"
    },
    {
      "children": [
        8
      ],
      "matrix": [
        7.549789970973109e-06,
        -99.99999999999955,
        -5.960465176979568e-06,
        0.0,
        -1.6292068416579042e-05,
        5.960463944632011e-06,
        -99.9999999999985,
        0.0,
        99.9999999999984,
        7.549790942418255e-06,
        -1.6292067961387602e-05,
        0.0,
        0.0,
        0.0,
        1800.0,
        1.0
      ],
      "name": "Plane.002"
    },
    {
      "mesh": 2,
      "name": "Plane.002_Material.001_0"
    },
    {
      "children": [
        10
      ],
      "matrix": [
        97.09253663615877,
        23.883206901631688,
        -1.6222692902293252,
        0.0,
        -1.1035247184908128,
        -2.3041279814733473,
        -99.96736081061995,
        0.0,
        -23.912788952750905,
        97.07874115534963,
        -1.973579062256047,
        0.0,
        117.67759704589844,
        121.64328002929688,
        0.0,
        1.0
      ],
      "name": "Plane.001"
    },
    {
      "mesh": 3,
      "name": "Plane.001_Material.002_0"
    },
    {
      "children": [
        12
      ],
      "matrix": [
        59.41608959976479,
        80.43458331562381,
        -3.086905455115952e-07,
        0.0,
        -6.342054673647013e-05,
        4.723179738430616e-05,
        99.99999999996874,
        0.0,
        80.43458331559881,
        -59.41608959974601,
        7.907533955845374e-05,
        0.0,
        117.67759704589844,
        121.64328002929688,
        0.0,
        1.0
      ],
      "name": "Plane.005"
    },
    {
      "mesh": 4,
      "name": "Plane.005_Material.002_0"
    },
    {
      "children": [
        14
      ],
      "matrix": [
        8.715580058482452,
        -99.61946930316475,
        -5.19984399982576e-07,
        0.0,
        -1.6275391284681362e-05,
        -9.019425206702181e-07,
        -99.99999999999866,
        0.0,
        99.61946930316343,
        8.715580058482425,
        -1.6292067961387602e-05,
        0.0,
        -1.3348579406738281,
        139.42074584960938,
        0.0,
        1.0
      ],
      "name": "Plane.006"
    },
    {
      "mesh": 5,
      "name": "Plane.006_Material.002_0"
    },
    {
      "children": [
        16
      ],
      "matrix": [
        8.715580058482452,
        -99.61946930316475,
        -5.19984399982576e-07,
        0.0,
        -1.6275391284681362e-05,
        -9.019425206702181e-07,
        -99.99999999999866,
        0.0,
        99.61946930316343,
        8.715580058482425,
        -1.6292067961387602e-05,
        0.0,
        -1.3348579406738281,
        139.42074584960938,
        -1800.0,
        1.0
      ],
      "name": "Plane.007"
    },
    {
      "mesh": 6,
      "name": "Plane.007_Material.004_0"
    },
    {
      "children": [
        18
      ],
      "matrix": [
        59.41608959976479,
        80.43458331562381,
        -3.086905455115952e-07,
        0.0,
        -6.342054673647013e-05,
        4.723179738430616e-05,
        99.99999999996874,
        0.0,
        80.43458331559881,
        -59.41608959974601,
        7.907533955845374e-05,
        0.0,
        117.67759704589844,
        121.64328002929688,
        -1800.0,
        1.0
      ],
      "name": "Plane.008"
    },
    {
      "mesh": 7,
      "name": "Plane.008_Material.004_0"
    },
    {
      "children": [
        20
      ],
      "matrix": [
        97.09253663615877,
        23.883206901631688,
        -1.6222692902293252,
        0.0,
        -1.1035247184908128,
        -2.3041279814733473,
        -99.96736081061995,
        0.0,
        -23.912788952750905,
        97.07874115534963,
        -1.973579062256047,
        0.0,
        117.67759704589844,
        121.64328002929688,
        -1800.0,
        1.0
      ],
      "name": "Plane.009"
    },
    {
      "mesh": 8,
      "name": "Plane.009_Material.004_0"
    }
  ],
  "samplers": [
    {
      "magFilter": 9729,
      "minFilter": 9987,
      "wrapS": 10497,
      "wrapT": 10497
    }
  ],
  "scene": 0,
  "scenes": [
    {
      "name": "Sketchfab_Scene",
      "nodes": [
        0
      ]
    }
  ],
  "textures": [
    {
      "sampler": 0,
      "source": 0
    },
    {
      "sampler": 0,
      "source": 1
    },
    {
      "sampler": 0,
      "source": 2
    }
  ]
}
